<?xml version="1.0" standalone="no"?>
<!DOCTYPE svg PUBLIC "-//W3C//DTD SVG 20010904//EN"
 "http://www.w3.org/TR/2001/REC-SVG-20010904/DTD/svg10.dtd">
<svg version="1.0" xmlns="http://www.w3.org/2000/svg"
 width="1080.000000pt" height="1080.000000pt" viewBox="0 0 1080.000000 1080.000000"
 preserveAspectRatio="xMidYMid meet">

<g transform="translate(0.000000,1080.000000) scale(0.100000,-0.100000)"
fill="#000000" stroke="none">
<path d="M5215 8600 c-44 -5 -120 -14 -170 -19 -49 -6 -146 -24 -215 -42 -132
-33 -340 -106 -340 -119 0 -17 42 -24 188 -28 103 -3 200 1 300 12 111 13 164
14 216 7 37 -5 70 -12 72 -14 2 -2 -31 -13 -73 -25 -161 -43 -184 -45 -370
-32 -96 7 -246 11 -334 8 -145 -5 -163 -8 -211 -31 -114 -56 -348 -229 -446
-330 -53 -54 -47 -61 59 -78 86 -13 286 -7 514 17 160 17 218 14 563 -32 105
-15 120 -19 105 -30 -17 -12 -16 -13 4 -9 13 2 25 -1 28 -6 4 -5 10 -7 15 -4
5 3 11 1 15 -5 4 -6 11 -8 16 -5 5 4 9 1 9 -5 0 -7 6 -10 14 -7 7 3 18 1 24
-5 6 -6 12 -6 16 1 8 12 7 12 -24 16 -11 1 -22 4 -25 5 -3 1 -9 3 -15 4 -5 0
-10 4 -10 9 0 4 0 10 0 13 0 4 7 1 15 -6 8 -7 15 -9 15 -5 0 4 7 2 15 -5 8 -7
15 -9 15 -5 0 4 6 2 13 -4 8 -6 17 -7 21 -3 4 4 6 0 4 -8 -2 -9 5 -14 18 -15
11 0 28 -6 36 -12 8 -7 17 -11 20 -8 2 3 5 -2 5 -10 0 -13 -3 -13 -19 2 -10 9
-18 13 -18 8 0 -4 -7 -2 -15 5 -8 7 -15 9 -15 5 0 -4 -7 -2 -15 5 -10 9 -15 9
-15 1 0 -10 14 -15 24 -8 2 1 13 -7 25 -17 12 -11 21 -15 21 -11 0 5 11 -2 25
-15 14 -13 25 -20 25 -15 0 5 16 -6 35 -25 19 -19 35 -30 35 -26 0 5 34 -26
75 -67 41 -42 75 -80 75 -84 0 -3 9 -16 20 -28 l20 -22 -182 -52 c-357 -101
-871 -199 -1190 -227 -43 -4 -78 -10 -78 -13 0 -4 57 -13 128 -20 142 -14 423
-53 552 -77 52 -9 102 -13 130 -9 76 11 457 111 594 155 158 51 162 52 176 35
13 -15 -5 -16 -29 -1 -11 7 -12 6 -5 -5 5 -8 9 -17 10 -21 1 -5 3 -10 4 -13 1
-3 4 -9 5 -15 1 -5 3 -11 5 -12 1 -2 3 -19 5 -38 1 -19 3 -36 5 -37 1 -2 3
-20 4 -40 1 -21 4 -42 7 -48 5 -9 4 -49 -1 -60 -1 -3 -3 -26 -5 -52 -1 -27 -5
-55 -9 -64 -4 -9 -6 -20 -5 -25 1 -5 0 -12 -1 -16 -1 -5 -4 -12 -5 -18 -1 -5
-3 -11 -4 -12 -2 -3 -8 -29 -15 -64 -1 -7 -8 -19 -15 -28 -7 -9 -10 -16 -6
-16 4 0 2 -6 -4 -13 -6 -8 -9 -16 -6 -19 3 -3 -1 -11 -10 -18 -8 -7 -15 -18
-15 -26 0 -15 -73 -38 -320 -100 -308 -78 -926 -194 -951 -178 -5 3 -17 0 -25
-7 -12 -10 -15 -10 -12 2 2 8 -2 13 -9 12 -18 -4 -37 24 -22 33 8 5 9 3 4 -6
-6 -9 -4 -11 5 -5 9 6 11 4 5 -6 -5 -8 -5 -11 0 -7 4 4 14 3 22 -3 35 -30 6 5
-64 74 -70 70 -104 99 -74 63 7 -8 8 -17 3 -20 -6 -3 -15 1 -22 9 -7 8 -9 15
-4 15 4 0 -3 11 -16 25 -26 28 -33 52 -19 61 5 3 9 2 8 -3 -1 -4 0 -11 1 -15
1 -5 3 -14 4 -20 1 -7 8 -12 15 -10 7 1 10 -2 7 -7 -4 -5 -2 -12 3 -15 22 -14
19 13 -4 34 -13 13 -22 26 -20 31 3 4 0 11 -5 14 -13 8 -35 57 -39 85 0 6 -6
10 -12 10 -8 0 -8 -4 -2 -12 6 -7 9 -21 8 -31 -2 -11 1 -15 8 -10 7 3 9 2 4
-2 -4 -5 0 -16 8 -25 13 -14 13 -17 0 -17 -8 0 -12 3 -10 7 3 4 -4 15 -15 25
-15 14 -17 21 -9 32 11 12 5 17 -14 14 -5 -1 -6 3 -3 8 3 5 0 14 -8 20 -8 7
-13 20 -11 29 1 9 -4 24 -11 33 -12 13 -12 16 1 16 8 0 11 -5 8 -10 -3 -6 -1
-7 5 -3 7 4 10 -1 7 -14 -2 -11 0 -18 5 -15 4 3 7 -3 5 -12 -3 -23 4 -35 16
-27 6 4 6 11 -2 20 -6 8 -8 14 -4 14 4 0 2 7 -5 15 -7 8 -9 15 -5 15 4 0 3 6
-3 13 -6 6 -11 15 -11 20 -1 4 -1 8 -2 10 0 1 -2 16 -5 32 -4 32 -11 68 -14
73 -2 1 -3 7 -4 12 0 6 -4 10 -8 10 -5 0 -11 0 -14 0 -4 0 -1 -6 5 -13 6 -8 7
-18 3 -22 -4 -5 -2 -5 5 -2 7 5 10 1 8 -10 -1 -10 2 -23 7 -30 6 -7 5 -14 -2
-18 -8 -5 -8 -10 0 -20 8 -10 8 -15 -1 -21 -7 -4 -9 -3 -5 4 3 6 2 14 -4 17
-8 5 -8 11 0 20 7 9 6 16 -4 24 -8 7 -13 20 -11 29 1 9 -1 22 -6 28 -15 19 24
43 76 46 68 4 -154 25 -401 38 -191 10 -416 1 -453 -19 -36 -20 -89 -313 -98
-542 l-6 -157 89 -12 c67 -10 154 -11 349 -4 448 14 544 8 1015 -67 260 -41
260 -41 254 -50 -3 -5 -9 -7 -14 -4 -4 3 -59 -4 -121 -15 -450 -78 -653 -96
-896 -81 -204 12 -531 14 -603 3 l-45 -7 3 -40 c14 -162 156 -603 200 -620 47
-18 234 -25 414 -15 410 23 448 23 593 6 234 -28 631 -93 622 -103 -14 -14
-512 -83 -600 -83 -34 0 -127 7 -207 16 -86 10 -238 17 -375 18 -195 1 -239
-2 -287 -17 -32 -10 -58 -21 -58 -25 0 -10 82 -130 147 -215 26 -34 97 -113
157 -175 84 -87 119 -115 150 -124 54 -16 461 -15 614 1 101 10 125 10 240 -9
139 -23 349 -68 371 -79 14 -9 -9 -13 -218 -37 -125 -15 -144 -14 -280 3 -153
18 -510 25 -564 10 -38 -10 -29 -21 86 -95 121 -79 260 -151 376 -197 84 -33
106 -38 215 -43 99 -4 115 -7 86 -15 -78 -20 -59 -30 120 -66 364 -74 796 -42
1163 85 336 117 624 300 862 546 327 338 547 750 601 1128 8 52 21 124 29 160
8 36 18 135 21 220 11 249 -23 508 -87 685 -16 44 -36 107 -44 140 -32 139
-178 419 -313 600 -80 107 -305 336 -419 426 -296 233 -672 395 -1050 455
-119 18 -398 26 -508 14z m590 -51 c55 -11 102 -23 105 -26 12 -13 -357 40
-369 53 -10 11 160 -7 264 -27z m329 -80 c72 -21 164 -64 201 -93 26 -20 -116
31 -215 78 -87 41 -84 44 14 15z m-338 -164 c81 -19 84 -27 35 -85 l-27 -32
-100 22 -100 22 45 49 c25 26 53 46 61 44 8 -2 47 -11 86 -20z m719 -228 l80
-34 3 -48 c2 -26 -1 -52 -6 -57 -5 -5 -44 5 -98 28 -49 20 -90 37 -91 38 -4 4
21 106 26 106 4 0 42 -15 86 -33z m-1398 -212 c0 -8 -4 -12 -9 -9 -5 3 -6 10
-3 15 9 13 12 11 12 -6z m243 -99 c0 4 13 -5 29 -20 16 -15 33 -28 38 -27 4 1
8 -5 8 -11 0 -7 5 -13 12 -13 15 0 28 -13 28 -28 0 -7 5 -12 12 -12 6 0 15 -4
20 -8 4 -5 8 -14 8 -20 0 -7 5 -12 12 -12 15 0 28 -13 28 -28 0 -7 6 -12 13
-12 6 0 11 -3 10 -7 -2 -3 8 -18 21 -31 17 -19 19 -25 7 -23 -18 2 -46 26 -31
26 5 0 -31 40 -79 89 -49 50 -93 88 -98 85 -5 -3 -7 0 -6 8 2 7 -3 12 -9 11
-7 -2 -12 2 -10 9 1 7 -8 13 -20 14 -33 2 -35 3 -28 14 5 8 11 7 21 -1 8 -6
14 -8 14 -3z m1794 -118 c40 -73 38 -75 -25 -27 -29 23 -37 37 -42 72 -3 23
-9 52 -12 62 -12 37 39 -31 79 -107z m-915 -50 l53 -20 -73 -43 c-142 -85
-131 -83 -271 -42 -68 20 -135 39 -150 43 -16 3 -28 9 -28 13 0 4 46 26 103
49 56 24 113 49 126 56 21 12 35 10 105 -11 45 -14 105 -34 135 -45z m807
-383 c46 -30 84 -58 84 -62 0 -13 -91 -123 -101 -123 -6 0 -47 22 -92 49 -45
28 -90 53 -100 57 -15 5 -7 17 50 70 37 35 70 63 71 64 2 0 42 -25 88 -55z
m-1308 36 c0 -3 1 -9 2 -13 1 -5 4 -12 5 -18 1 -5 4 -12 5 -15 1 -3 3 -17 4
-32 1 -16 5 -33 9 -40 4 -6 3 -15 -3 -18 -8 -5 -8 -11 0 -20 8 -10 8 -15 0
-20 -8 -5 -8 -10 0 -20 8 -9 8 -15 0 -20 -6 -4 -10 -3 -9 2 1 4 0 11 -1 16 -1
4 -4 25 -5 47 -1 22 -4 42 -5 45 -1 3 -3 22 -4 43 0 22 -7 46 -13 54 -10 12
-10 15 2 15 7 0 14 -3 13 -6z m22 -256 c-8 -10 -8 -15 0 -20 8 -5 8 -10 0 -20
-8 -9 -8 -15 0 -20 6 -3 7 -12 3 -18 -4 -7 -8 -24 -9 -39 -1 -16 -3 -30 -4
-33 -1 -3 -3 -15 -4 -27 0 -12 -9 -22 -19 -24 -15 -2 -16 0 -5 13 7 9 14 29
14 45 1 15 3 30 4 33 1 3 4 28 5 55 1 28 4 53 5 58 1 4 2 11 1 15 -1 5 3 6 9
2 8 -5 8 -11 0 -20z m-34 -234 c-7 -9 -12 -24 -11 -33 2 -9 -3 -22 -11 -29 -8
-6 -12 -15 -9 -18 2 -4 -2 -8 -10 -8 -13 0 -12 4 2 19 9 10 13 18 8 18 -4 0
-2 7 5 15 7 8 9 15 5 15 -4 0 -2 6 4 13 6 8 9 16 6 19 -3 2 2 5 10 5 13 0 13
-3 1 -16z m552 -52 c83 -34 152 -65 152 -68 0 -4 -12 -12 -27 -18 -16 -6 -84
-34 -153 -62 l-124 -52 -187 63 c-103 34 -186 65 -183 67 4 4 348 127 364 130
3 1 74 -27 158 -60z m-594 -58 c3 -4 -3 -16 -13 -26 -20 -17 -24 -4 -8 23 10
14 14 15 21 3z m1816 -120 l30 -44 -36 -66 c-20 -36 -39 -70 -44 -74 -4 -5
-18 6 -30 23 -21 29 -22 38 -15 128 4 53 12 103 18 110 12 15 21 6 77 -77z
m-3200 -137 c0 -1 -7 -1 -15 0 -18 3 -30 14 -30 29 0 7 -5 12 -12 12 -15 0
-26 12 -29 32 -2 9 16 -3 42 -28 24 -24 44 -44 44 -45z m1014 -146 c-3 -5 -9
-6 -14 -3 -4 3 -13 -2 -20 -10 -13 -16 -35 -10 -24 6 3 5 9 7 14 4 5 -3 11 -2
14 3 3 5 12 9 20 9 8 0 13 -4 10 -9z m1847 -60 l82 -72 -34 -28 c-19 -16 -57
-45 -85 -64 l-51 -36 -96 73 -96 72 87 54 c48 30 91 59 97 64 5 5 10 9 12 9 2
0 40 -32 84 -72z m-1924 36 c0 -7 -4 -11 -8 -9 -3 3 -12 -1 -18 -9 -7 -8 -20
-13 -29 -11 -9 1 -25 -5 -35 -13 -15 -13 -18 -14 -15 -2 2 9 -6 14 -22 15 -31
2 -42 -4 -34 -16 4 -6 11 -6 20 2 8 6 14 9 14 5 0 -3 0 -9 0 -13 0 -5 -9 -9
-20 -9 -11 -1 -22 -3 -25 -4 -3 -1 -17 -3 -32 -4 -16 -1 -33 -5 -40 -9 -6 -4
-15 -3 -18 3 -5 8 -11 8 -20 0 -10 -8 -15 -8 -20 0 -5 8 -10 8 -20 0 -10 -8
-15 -8 -20 0 -5 8 -10 8 -20 0 -9 -8 -15 -8 -20 0 -4 6 -3 10 2 9 4 -1 11 0
16 1 4 1 15 3 25 5 9 1 24 5 33 9 9 4 20 6 25 5 5 -1 16 0 24 4 34 13 170 38
179 33 5 -4 11 0 14 6 3 10 7 10 20 -1 15 -12 21 -9 19 10 -1 3 5 6 12 6 7 0
13 -6 13 -13z m1008 -494 c181 -86 179 -78 23 -133 -73 -26 -138 -47 -144 -47
-6 0 -67 -18 -135 -40 -209 -67 -632 -170 -646 -156 -10 9 -16 160 -9 199 6
31 11 36 44 42 59 10 341 87 537 147 99 30 187 53 195 50 8 -3 69 -31 135 -62z
m1091 -226 l15 -57 -63 -64 c-34 -34 -65 -63 -68 -63 -6 0 -50 113 -49 126 0
10 142 124 147 119 2 -2 10 -29 18 -61z m-426 -279 l31 -45 -33 -46 c-30 -43
-117 -100 -138 -92 -11 4 -89 104 -92 118 -2 9 167 104 194 109 4 0 21 -19 38
-44z m-811 -384 l54 -47 -119 -33 c-110 -31 -120 -33 -144 -18 -69 42 -170 97
-180 97 -5 0 -10 3 -10 8 0 4 62 23 138 43 l137 36 35 -19 c20 -11 60 -41 89
-67z m640 -193 c-30 -57 -56 -81 -130 -118 -43 -22 -81 -40 -84 -40 -3 0 6 17
20 37 14 21 25 42 25 48 0 9 153 93 173 94 4 1 2 -9 -4 -21z m-709 -268 c0 -5
-16 -27 -35 -49 -32 -35 -45 -41 -131 -61 -52 -12 -98 -20 -100 -17 -8 8 71
55 146 86 41 17 82 36 90 41 19 13 30 13 30 0z m-440 -93 c0 -32 -66 -73 -137
-86 l-48 -9 28 20 c16 12 32 31 37 43 8 20 38 32 113 44 4 0 7 -5 7 -12z
m-285 -68 c79 -24 81 -33 4 -19 -30 6 -101 14 -159 18 -97 6 -101 7 -50 13
103 11 138 9 205 -12z"/>
<path d="M5176 6212 c-3 -5 1 -9 9 -9 8 0 12 4 9 9 -3 4 -7 8 -9 8 -2 0 -6 -4
-9 -8z"/>
<path d="M5135 6200 c4 -6 11 -8 16 -5 14 9 11 15 -7 15 -8 0 -12 -5 -9 -10z"/>
<path d="M5026 6183 c-4 -4 -16 -8 -27 -8 -10 0 -19 -3 -19 -7 0 -8 4 -9 15
-7 3 1 19 2 35 3 17 0 30 6 31 11 0 13 -24 18 -35 8z"/>
<path d="M4936 6158 c3 -5 10 -6 15 -3 13 9 11 12 -6 12 -8 0 -12 -4 -9 -9z"/>
<path d="M3715 7790 c-80 -12 -87 -16 -146 -98 -120 -164 -284 -471 -263 -492
17 -16 138 -30 271 -30 143 0 429 17 453 27 8 3 18 6 22 5 3 -1 5 6 3 16 -1 9
2 23 8 30 5 6 6 12 2 12 -4 0 -2 7 5 15 7 8 9 15 5 15 -4 0 -2 7 5 15 7 8 9
15 5 15 -4 0 -2 7 5 15 7 8 9 15 5 15 -5 0 0 9 10 20 10 11 14 20 10 20 -4 0
0 9 10 20 10 11 14 20 10 20 -5 0 2 11 15 25 13 14 20 25 15 25 -5 0 5 15 23
33 17 17 32 37 33 42 2 13 139 151 139 140 0 -5 16 6 35 25 19 19 35 30 35 25
0 -5 5 -4 12 3 7 7 28 12 47 13 l36 1 -35 8 c-107 24 -650 39 -775 20z m674
-66 c-6 -7 -14 -12 -18 -9 -4 2 -48 -36 -97 -86 -48 -49 -85 -89 -80 -89 5 0
3 -7 -4 -15 -6 -8 -17 -13 -23 -12 -6 1 -11 -8 -12 -20 0 -12 -10 -32 -23 -45
-12 -14 -20 -27 -17 -30 3 -2 -2 -5 -10 -5 -13 0 -13 2 0 17 8 9 12 20 8 24
-5 4 -3 6 4 4 6 -1 10 0 10 3 -1 3 4 13 12 22 7 10 10 17 5 17 -4 0 7 15 24
33 18 18 29 37 25 41 -5 4 -1 6 7 4 8 -1 14 2 15 9 0 15 13 28 28 28 7 1 11 6
10 13 -2 7 3 11 10 10 6 -2 11 3 10 10 -2 6 2 11 9 10 7 -2 12 2 13 9 0 15 13
28 28 28 7 1 11 7 9 14 -1 7 2 10 6 7 5 -3 17 3 27 14 20 22 43 16 24 -6z
m-296 -356 c-10 -11 -19 -29 -19 -39 -1 -10 -3 -21 -4 -24 -2 -5 -5 -15 -9
-31 0 -3 -6 -2 -11 1 -8 5 -7 11 1 21 6 8 8 14 4 14 -4 0 -2 7 5 15 7 8 9 15
5 15 -4 0 -2 6 4 13 6 8 7 17 3 21 -4 4 0 6 8 4 8 -2 14 3 12 10 -1 8 2 11 8
7 8 -5 5 -14 -7 -27z m-48 -128 c-8 -9 -12 -19 -9 -22 3 -3 1 -9 -4 -12 -9 -5
-9 14 -2 34 1 3 2 8 2 11 -1 3 6 6 14 6 12 0 12 -3 -1 -17z"/>
<path d="M2540 3050 l0 -300 70 0 70 0 0 125 0 125 135 0 135 0 0 -125 0 -125
65 0 65 0 0 300 0 300 -65 0 -65 0 0 -115 0 -115 -135 0 -135 0 0 115 0 115
-70 0 -70 0 0 -300z"/>
<path d="M6150 3050 l0 -220 39 0 39 0 4 105 c2 81 7 108 20 121 20 20 67 22
79 3 5 -8 9 -62 9 -121 l0 -108 41 0 41 0 -4 136 c-3 129 -4 137 -27 155 -28
23 -99 25 -127 4 -10 -8 -22 -15 -26 -15 -5 0 -8 36 -8 80 l0 80 -40 0 -40 0
0 -220z"/>
<path d="M7202 3074 l3 -196 28 -24 c21 -18 40 -24 73 -24 43 0 45 1 42 27 -2
19 -10 29 -23 31 -41 7 -45 28 -45 209 l0 173 -41 0 -41 0 4 -196z"/>
<path d="M5220 3225 l0 -35 55 0 55 0 0 -180 0 -180 40 0 40 0 0 180 0 180 55
0 55 0 0 35 0 35 -150 0 -150 0 0 -35z"/>
<path d="M3325 3186 c-86 -40 -135 -114 -135 -206 0 -133 105 -230 250 -230
149 1 244 90 244 230 0 70 -22 127 -66 167 -69 65 -201 83 -293 39z m185 -104
c14 -10 32 -38 40 -60 29 -84 -28 -167 -116 -167 -36 0 -49 6 -76 33 -30 29
-33 38 -33 91 0 49 4 64 25 86 14 15 34 31 45 36 28 12 85 3 115 -19z"/>
<path d="M3780 2895 l0 -315 65 0 65 0 0 109 0 110 43 -24 c87 -50 223 -20
280 63 37 53 52 129 37 195 -15 73 -52 122 -116 153 -46 22 -64 26 -119 22
-46 -3 -73 -10 -95 -26 l-30 -23 0 26 c0 24 -2 25 -65 25 l-65 0 0 -315z m320
187 c14 -10 32 -38 40 -60 29 -84 -28 -167 -116 -167 -36 0 -49 6 -76 33 -30
29 -33 38 -33 91 0 49 4 64 25 86 14 15 34 31 45 36 28 12 85 3 115 -19z"/>
<path d="M4485 3195 c-51 -18 -120 -91 -134 -141 -44 -160 51 -290 221 -302
78 -5 142 9 184 43 l29 23 -34 36 c-32 33 -36 34 -60 22 -69 -36 -144 -30
-191 14 -17 15 -30 33 -30 39 0 7 58 11 173 13 l172 3 -2 52 c-4 88 -56 165
-135 197 -46 20 -140 20 -193 1z m176 -111 c15 -14 29 -35 32 -45 5 -18 -2
-19 -109 -19 -122 0 -129 4 -98 49 39 55 125 63 175 15z"/>
<path d="M5574 3121 c-56 -34 -81 -141 -50 -216 24 -57 67 -77 158 -73 42 2
80 6 83 10 4 4 5 18 1 31 -6 24 -8 24 -70 20 -55 -5 -66 -3 -85 16 -43 43 -30
51 79 51 l100 0 0 35 c0 48 -22 97 -55 123 -36 29 -117 30 -161 3z m124 -53
c6 -6 12 -19 12 -29 0 -17 -8 -19 -60 -19 -59 0 -71 8 -52 36 21 32 68 37 100
12z"/>
<path d="M5914 3121 c-39 -24 -64 -76 -64 -136 0 -60 25 -112 64 -136 24 -15
46 -19 96 -17 65 3 65 3 65 33 0 29 -1 29 -51 26 -46 -2 -54 1 -73 25 -28 36
-28 102 0 139 19 24 27 26 70 23 44 -3 49 -1 54 21 8 32 -8 41 -75 41 -36 0
-65 -6 -86 -19z"/>
<path d="M6510 2985 l0 -155 34 0 34 0 4 105 c3 80 7 109 20 121 20 20 67 22
79 3 5 -8 9 -62 9 -121 l0 -108 40 0 40 0 0 130 c0 126 -1 132 -25 155 -32 33
-100 35 -139 4 l-27 -21 -6 21 c-4 15 -13 21 -34 21 l-29 0 0 -155z"/>
<path d="M6902 3120 c-84 -51 -84 -219 0 -270 40 -24 116 -27 159 -4 37 19 69
83 69 139 0 56 -32 120 -69 139 -43 23 -119 20 -159 -4z m136 -70 c17 -33 10
-126 -10 -147 -24 -23 -69 -19 -90 7 -23 29 -25 116 -2 148 22 32 83 28 102
-8z"/>
<path d="M7442 3120 c-84 -51 -84 -219 0 -270 40 -24 116 -27 159 -4 37 19 69
83 69 139 0 56 -32 120 -69 139 -43 23 -119 20 -159 -4z m136 -70 c17 -33 10
-126 -10 -147 -24 -23 -69 -19 -90 7 -23 29 -25 116 -2 148 22 32 83 28 102
-8z"/>
<path d="M7783 3121 c-49 -31 -62 -104 -24 -145 19 -21 19 -21 0 -45 -23 -28
-25 -64 -4 -81 13 -11 12 -16 -10 -42 -29 -35 -31 -58 -7 -87 49 -62 231 -41
267 30 21 40 19 64 -9 96 -21 24 -32 28 -107 33 -78 5 -84 7 -87 28 -3 20 1
22 45 22 88 0 143 45 143 118 0 25 4 32 20 32 16 0 20 7 20 30 0 34 -22 40
-51 14 -16 -15 -20 -15 -41 0 -32 23 -115 21 -155 -3z m123 -55 c14 -58 -11
-94 -59 -82 -32 8 -45 46 -28 82 8 19 18 24 46 24 28 0 36 -4 41 -24z m32
-278 c3 -22 -2 -30 -23 -38 -57 -22 -125 -6 -125 28 0 33 22 43 85 40 57 -3
60 -4 63 -30z"/>
<path d="M8054 3123 c3 -10 19 -65 36 -123 52 -176 49 -170 76 -170 42 0 20
-76 -25 -86 -46 -10 -51 -13 -51 -33 0 -37 92 -37 126 0 9 10 44 111 79 224
l63 206 -41 -3 -40 -3 -36 -132 c-19 -73 -38 -129 -41 -125 -4 4 -20 64 -36
134 l-29 128 -43 0 c-37 0 -43 -3 -38 -17z"/>
<path d="M3299 2394 c-17 -21 0 -49 31 -49 31 0 48 28 31 49 -8 9 -21 16 -31
16 -10 0 -23 -7 -31 -16z"/>
<path d="M4299 2394 c-17 -21 0 -49 31 -49 31 0 48 28 31 49 -8 9 -21 16 -31
16 -10 0 -23 -7 -31 -16z"/>
<path d="M3180 2235 l0 -155 30 0 30 0 0 155 0 155 -30 0 -30 0 0 -155z"/>
<path d="M5520 2339 c0 -45 -2 -50 -17 -44 -56 23 -93 17 -129 -22 -19 -20
-24 -37 -24 -78 0 -41 5 -58 24 -78 30 -33 68 -43 112 -29 19 6 34 6 34 1 0
-5 14 -9 30 -9 l30 0 0 155 0 155 -30 0 c-29 0 -30 -1 -30 -51z m-22 -95 c33
-23 27 -83 -9 -103 -24 -13 -29 -13 -53 2 -34 23 -37 78 -4 101 28 20 38 20
66 0z"/>
<path d="M5640 2235 l0 -155 30 0 30 0 0 155 0 155 -30 0 -30 0 0 -155z"/>
<path d="M2620 2224 l0 -146 105 4 c91 3 108 6 127 25 28 29 28 76 -1 107 -19
20 -20 24 -6 36 17 14 20 52 5 80 -14 27 -64 40 -151 40 l-79 0 0 -146z m161
86 c45 -25 9 -60 -60 -60 -40 0 -41 1 -41 35 0 34 1 35 41 35 22 0 49 -5 60
-10z m13 -116 c22 -8 20 -41 -3 -54 -11 -5 -40 -10 -65 -10 -46 0 -46 0 -46
35 l0 35 49 0 c27 0 56 -3 65 -6z"/>
<path d="M2980 2303 c-28 -10 -59 -46 -70 -79 -15 -44 8 -97 52 -124 40 -24
76 -25 125 -5 37 16 37 16 17 35 -17 17 -24 18 -51 8 -26 -10 -35 -9 -57 5
-43 29 -31 37 54 37 l80 0 0 30 c0 70 -79 119 -150 93z m71 -53 c33 -18 21
-30 -31 -30 -51 0 -64 11 -32 29 22 13 39 13 63 1z"/>
<path d="M3300 2195 l0 -115 30 0 30 0 0 115 0 115 -30 0 -30 0 0 -115z"/>
<path d="M3480 2303 c-28 -10 -59 -46 -70 -79 -15 -44 8 -97 52 -124 40 -24
76 -25 125 -5 37 16 37 16 17 35 -17 17 -24 18 -51 8 -26 -10 -35 -9 -57 5
-43 29 -31 37 54 37 l80 0 0 30 c0 70 -79 119 -150 93z m71 -53 c33 -18 21
-30 -31 -30 -51 0 -64 11 -32 29 22 13 39 13 63 1z"/>
<path d="M3650 2308 c0 -2 20 -53 44 -113 43 -107 45 -110 77 -113 l34 -2 46
115 47 116 -31 -3 c-28 -3 -33 -9 -60 -76 -16 -40 -32 -70 -36 -67 -3 4 -17
37 -31 73 -24 62 -28 67 -58 70 -18 2 -32 2 -32 0z"/>
<path d="M3980 2303 c-28 -10 -59 -46 -70 -79 -15 -44 8 -97 52 -124 40 -24
76 -25 125 -5 37 16 37 16 17 35 -17 17 -24 18 -51 8 -26 -10 -35 -9 -57 5
-43 29 -31 37 54 37 l80 0 0 30 c0 70 -79 119 -150 93z m71 -53 c33 -18 21
-30 -31 -30 -51 0 -64 11 -32 29 22 13 39 13 63 1z"/>
<path d="M4300 2195 l0 -115 30 0 30 0 0 115 0 115 -30 0 -30 0 0 -115z"/>
<path d="M4420 2195 l0 -115 30 0 30 0 0 70 c0 57 4 74 20 90 23 23 33 24 61
10 16 -9 19 -22 19 -90 l0 -80 30 0 30 0 0 90 c0 76 -3 93 -20 110 -27 27 -68
35 -104 21 -20 -7 -32 -8 -34 -1 -2 5 -17 10 -33 10 l-29 0 0 -115z"/>
<path d="M4880 2303 c-28 -10 -59 -46 -70 -79 -15 -44 8 -97 52 -124 40 -24
76 -25 125 -5 37 16 37 16 17 35 -17 17 -24 18 -51 8 -26 -10 -35 -9 -57 5
-43 29 -31 37 54 37 l80 0 0 30 c0 70 -79 119 -150 93z m71 -53 c33 -18 21
-30 -31 -30 -51 0 -64 11 -32 29 22 13 39 13 63 1z"/>
<path d="M5080 2195 l0 -115 30 0 30 0 0 70 c0 57 4 74 20 90 23 23 33 24 61
10 16 -9 19 -22 19 -90 l0 -80 30 0 30 0 0 90 c0 76 -3 93 -20 110 -27 27 -68
35 -104 21 -20 -7 -32 -8 -34 -1 -2 5 -17 10 -33 10 l-29 0 0 -115z"/>
<path d="M5820 2303 c-28 -10 -59 -46 -70 -79 -15 -44 8 -97 52 -124 40 -24
76 -25 125 -5 37 16 37 16 17 35 -17 17 -24 18 -51 8 -26 -10 -35 -9 -57 5
-43 29 -31 37 54 37 l80 0 0 30 c0 70 -79 119 -150 93z m71 -53 c33 -18 21
-30 -31 -30 -51 0 -64 11 -32 29 22 13 39 13 63 1z"/>
<path d="M6060 2303 c-31 -12 -50 -37 -50 -64 0 -33 27 -54 83 -64 44 -9 52
-18 31 -36 -12 -10 -24 -10 -57 -1 -36 9 -44 9 -54 -5 -20 -25 -16 -31 25 -42
71 -20 137 -5 153 36 14 39 -20 83 -65 83 -8 0 -27 5 -42 10 -26 10 -26 12
-11 27 14 14 23 15 56 7 36 -10 40 -9 50 12 6 14 7 26 1 29 -15 9 -103 15
-120 8z"/>
<path d="M6280 2303 c-31 -12 -50 -37 -50 -64 0 -33 27 -54 83 -64 44 -9 52
-18 31 -36 -12 -10 -24 -10 -57 -1 -36 9 -44 9 -54 -5 -20 -25 -16 -31 25 -42
71 -20 137 -5 153 36 14 39 -20 83 -65 83 -8 0 -27 5 -42 10 -26 10 -26 12
-11 27 14 14 23 15 56 7 36 -10 40 -9 50 12 6 14 7 26 1 29 -15 9 -103 15
-120 8z"/>
<path d="M6620 2303 c-31 -12 -50 -37 -50 -64 0 -33 27 -54 83 -64 44 -9 52
-18 31 -36 -12 -10 -24 -10 -57 -1 -36 9 -44 9 -54 -5 -20 -25 -16 -31 25 -42
71 -20 137 -5 153 36 14 39 -20 83 -65 83 -8 0 -27 5 -42 10 -26 10 -26 12
-11 27 14 14 23 15 56 7 36 -10 40 -9 50 12 6 14 7 26 1 29 -15 9 -103 15
-120 8z"/>
<path d="M6800 2224 c0 -81 1 -87 29 -115 31 -31 67 -37 104 -18 16 9 22 9 25
0 2 -6 17 -11 33 -11 l29 0 0 115 0 115 -30 0 -30 0 0 -70 c0 -57 -4 -74 -20
-90 -47 -47 -80 -11 -80 88 l0 72 -30 0 -30 0 0 -86z"/>
<path d="M7122 2290 c-95 -58 -62 -195 50 -207 32 -3 52 1 76 16 37 24 40 36
13 51 -15 7 -27 6 -49 -7 -28 -16 -31 -16 -56 0 -20 13 -26 26 -26 52 0 26 6
39 26 52 25 16 28 16 56 0 22 -13 34 -14 49 -7 27 15 24 27 -13 50 -42 25 -84
25 -126 0z"/>
<path d="M7362 2290 c-95 -58 -62 -195 50 -207 32 -3 52 1 76 16 37 24 40 36
13 51 -15 7 -27 6 -49 -7 -28 -16 -31 -16 -56 0 -20 13 -26 26 -26 52 0 26 6
39 26 52 25 16 28 16 56 0 22 -13 34 -14 49 -7 27 15 24 27 -13 50 -42 25 -84
25 -126 0z"/>
<path d="M7620 2303 c-28 -10 -59 -46 -70 -79 -15 -44 8 -97 52 -124 40 -24
76 -25 125 -5 37 16 37 16 17 35 -17 17 -24 18 -51 8 -26 -10 -35 -9 -57 5
-43 29 -31 37 54 37 l80 0 0 30 c0 70 -79 119 -150 93z m71 -53 c33 -18 21
-30 -31 -30 -51 0 -64 11 -32 29 22 13 39 13 63 1z"/>
<path d="M7860 2303 c-31 -12 -50 -37 -50 -64 0 -33 27 -54 83 -64 44 -9 52
-18 31 -36 -12 -10 -24 -10 -57 -1 -36 9 -44 9 -54 -5 -20 -25 -16 -31 25 -42
71 -20 137 -5 153 36 14 39 -20 83 -65 83 -8 0 -27 5 -42 10 -26 10 -26 12
-11 27 14 14 23 15 56 7 36 -10 40 -9 50 12 6 14 7 26 1 29 -15 9 -103 15
-120 8z"/>
<path d="M8080 2303 c-31 -12 -50 -37 -50 -64 0 -33 27 -54 83 -64 44 -9 52
-18 31 -36 -12 -10 -24 -10 -57 -1 -36 9 -44 9 -54 -5 -20 -25 -16 -31 25 -42
71 -20 137 -5 153 36 14 39 -20 83 -65 83 -8 0 -27 5 -42 10 -26 10 -26 12
-11 27 14 14 23 15 56 7 36 -10 40 -9 50 12 6 14 7 26 1 29 -15 9 -103 15
-120 8z"/>
</g>
</svg>
